<mxfile host="Electron" agent="Mozilla/5.0 (Windows NT 10.0; Win64; x64) AppleWebKit/537.36 (KHTML, like Gecko) draw.io/24.7.17 Chrome/128.0.6613.36 Electron/32.0.1 Safari/537.36" version="24.7.17">
  <diagram name="PÃ¡gina-1" id="kKBKMEyVlORLd3pp8Gom">
    <mxGraphModel dx="1434" dy="836" grid="1" gridSize="10" guides="1" tooltips="1" connect="1" arrows="1" fold="1" page="1" pageScale="1" pageWidth="827" pageHeight="1169" math="0" shadow="0">
      <root>
        <mxCell id="0" />
        <mxCell id="1" parent="0" />
        <mxCell id="rFL1SJs7jFUsXzOqKkRG-46" value="server1:??" style="verticalAlign=top;align=center;spacingTop=8;spacingLeft=2;spacingRight=12;shape=cube;size=10;direction=south;fontStyle=4;html=1;whiteSpace=wrap;fillColor=#1ba1e2;fontColor=#ffffff;strokeColor=#006EAF;" parent="1" vertex="1">
          <mxGeometry x="110" y="200" width="250" height="140" as="geometry" />
        </mxCell>
        <mxCell id="rFL1SJs7jFUsXzOqKkRG-47" value="&lt;p style=&quot;margin:0px;margin-top:6px;text-align:center;&quot;&gt;&lt;b&gt;Component&lt;/b&gt;&lt;/p&gt;&lt;p style=&quot;margin:0px;margin-top:6px;text-align:center;&quot;&gt;&lt;b&gt;MastersData&lt;/b&gt;&lt;/p&gt;" style="align=left;overflow=fill;html=1;dropTarget=0;whiteSpace=wrap;fillColor=#1ba1e2;fontColor=#ffffff;strokeColor=default;" parent="1" vertex="1">
          <mxGeometry x="150" y="235" width="170" height="85" as="geometry" />
        </mxCell>
        <mxCell id="rFL1SJs7jFUsXzOqKkRG-48" value="" style="shape=component;jettyWidth=8;jettyHeight=4;" parent="rFL1SJs7jFUsXzOqKkRG-47" vertex="1">
          <mxGeometry x="1" width="20" height="20" relative="1" as="geometry">
            <mxPoint x="-24" y="4" as="offset" />
          </mxGeometry>
        </mxCell>
        <mxCell id="sd2xaRwGRJdu4WyD6hQX-16" value="VM:27" style="verticalAlign=top;align=center;spacingTop=8;spacingLeft=2;spacingRight=12;shape=cube;size=10;direction=south;fontStyle=4;html=1;whiteSpace=wrap;fillColor=#1ba1e2;fontColor=#ffffff;strokeColor=#006EAF;" vertex="1" parent="1">
          <mxGeometry x="110" y="520" width="250" height="140" as="geometry" />
        </mxCell>
        <mxCell id="sd2xaRwGRJdu4WyD6hQX-17" value="&lt;p style=&quot;margin:0px;margin-top:6px;text-align:center;&quot;&gt;&lt;b&gt;Component&lt;/b&gt;&lt;/p&gt;&lt;p style=&quot;margin:0px;margin-top:6px;text-align:center;&quot;&gt;&lt;b&gt;DBMS&lt;/b&gt;&lt;/p&gt;" style="align=left;overflow=fill;html=1;dropTarget=0;whiteSpace=wrap;fillColor=#1ba1e2;fontColor=#ffffff;strokeColor=default;" vertex="1" parent="1">
          <mxGeometry x="150" y="560" width="170" height="85" as="geometry" />
        </mxCell>
        <mxCell id="sd2xaRwGRJdu4WyD6hQX-18" value="" style="shape=component;jettyWidth=8;jettyHeight=4;" vertex="1" parent="sd2xaRwGRJdu4WyD6hQX-17">
          <mxGeometry x="1" width="20" height="20" relative="1" as="geometry">
            <mxPoint x="-24" y="4" as="offset" />
          </mxGeometry>
        </mxCell>
        <mxCell id="sd2xaRwGRJdu4WyD6hQX-19" value="" style="endArrow=none;html=1;rounded=0;entryX=0.012;entryY=0.535;entryDx=0;entryDy=0;entryPerimeter=0;exitX=0.5;exitY=1;exitDx=0;exitDy=0;" edge="1" parent="1" source="sd2xaRwGRJdu4WyD6hQX-21" target="sd2xaRwGRJdu4WyD6hQX-16">
          <mxGeometry width="50" height="50" relative="1" as="geometry">
            <mxPoint x="490" y="275" as="sourcePoint" />
            <mxPoint x="310" y="400" as="targetPoint" />
          </mxGeometry>
        </mxCell>
        <mxCell id="sd2xaRwGRJdu4WyD6hQX-21" value="TCP/IP" style="text;html=1;align=center;verticalAlign=middle;whiteSpace=wrap;rounded=0;" vertex="1" parent="1">
          <mxGeometry x="200" y="420" width="50" height="31.25" as="geometry" />
        </mxCell>
        <mxCell id="sd2xaRwGRJdu4WyD6hQX-23" value="" style="endArrow=none;html=1;rounded=0;exitX=0.987;exitY=0.544;exitDx=0;exitDy=0;exitPerimeter=0;entryX=0.5;entryY=0;entryDx=0;entryDy=0;" edge="1" parent="1" source="rFL1SJs7jFUsXzOqKkRG-46" target="sd2xaRwGRJdu4WyD6hQX-21">
          <mxGeometry width="50" height="50" relative="1" as="geometry">
            <mxPoint x="360" y="277.16" as="sourcePoint" />
            <mxPoint x="440" y="277" as="targetPoint" />
          </mxGeometry>
        </mxCell>
      </root>
    </mxGraphModel>
  </diagram>
</mxfile>
